<svg width="2536" height="673" viewBox="0 0 2536 673" fill="none" xmlns="http://www.w3.org/2000/svg">
<path d="M39 300C32.6 300 27.2 297.8 22.8 293.4C18.8 288.6 17.2 283 18 276.6L43.8 75C44.6 67 47.6 61 52.8 57C58.4 53 64.4 51 70.8 51C77.2 51 83 52.6 88.2 55.8C93.8 58.6 97.6 63 99.6 69L147 203.4C149 208.2 151 210.6 153 210.6C155.4 210.6 157.4 208.2 159 203.4L206.4 69C208.4 63 212 58.6 217.2 55.8C222.8 52.6 228.6 51 234.6 51C241 51 247 53 252.6 57C258.2 61 261.4 67 262.2 75L288 276.6C288.8 283 287.2 288.6 283.2 293.4C279.2 297.8 273.8 300 267 300C261.8 300 257 298.2 252.6 294.6C248.6 291 246.2 286.4 245.4 280.8L232.2 132.6C231.8 127.8 230.2 125.4 227.4 125.4C224.6 125.4 222.6 127.4 221.4 131.4L178.2 250.8C175.8 257.2 172.4 261.8 168 264.6C163.6 267.4 158.6 268.8 153 268.8C142.2 268.8 134 262.8 128.4 250.8L84.6 131.4C83 127.4 81 125.4 78.6 125.4C77 125.4 75.8 127.8 75 132.6L60.6 280.8C60.2 286.4 57.8 291 53.4 294.6C49.4 298.2 44.6 300 39 300ZM446.259 300C423.059 300 401.859 294.6 382.659 283.8C363.859 272.6 348.859 257.6 337.659 238.8C326.459 219.6 320.859 198 320.859 174C320.859 148.8 326.459 126.8 337.659 108C348.859 89.2 363.859 74.6 382.659 64.2C401.859 53.4 423.059 48 446.259 48C469.459 48 490.259 53.4 508.659 64.2C527.459 74.6 542.259 89.2 553.059 108C564.259 126.8 569.859 148.8 569.859 174C569.859 198 564.259 219.6 553.059 238.8C542.259 257.6 527.459 272.6 508.659 283.8C490.259 294.6 469.459 300 446.259 300ZM446.259 263.4C462.259 263.4 476.259 259.4 488.259 251.4C500.659 243 510.259 232 517.059 218.4C523.859 204.8 527.259 190 527.259 174C527.259 148.4 519.659 127.2 504.459 110.4C489.259 93.6 469.859 85.2 446.259 85.2C422.259 85.2 402.659 93.6 387.459 110.4C372.259 127.2 364.659 148.4 364.659 174C364.659 190 368.059 204.8 374.859 218.4C381.659 232 391.259 243 403.659 251.4C416.059 259.4 430.259 263.4 446.259 263.4ZM632.766 300C627.566 300 622.766 298.4 618.366 295.2C613.966 292 611.766 287.2 611.766 280.8V78.6C611.766 69.4 614.566 62.6 620.166 58.2C626.166 53.4 632.566 51 639.366 51C649.766 51 657.366 55 662.166 63L761.166 218.4C763.166 221.6 765.366 223.2 767.766 223.2C771.366 223.2 773.166 220.4 773.166 214.8L770.766 70.2C770.766 63.8 772.966 59 777.366 55.8C781.766 52.6 786.566 51 791.766 51C796.966 51 801.766 52.6 806.166 55.8C810.566 59 812.766 63.8 812.766 70.2V273.6C812.766 282.4 810.166 289 804.966 293.4C799.766 297.8 793.766 300 786.966 300C782.166 300 777.366 298.8 772.566 296.4C768.166 294.4 764.366 291 761.166 286.2L663.966 135C661.966 131.8 659.766 130.2 657.366 130.2C653.766 130.2 651.966 133 651.966 138.6L653.766 280.8C653.766 287.2 651.566 292 647.166 295.2C643.166 298.4 638.366 300 632.766 300ZM901.448 294C893.048 294 885.048 291.2 877.448 285.6C870.248 280 866.648 272 866.648 261.6V85.2C866.648 76 869.648 68.6 875.648 63C882.048 57 889.448 54 897.848 54H951.848C975.848 54 996.848 59 1014.85 69C1033.25 78.6 1047.45 92.4 1057.45 110.4C1067.85 128.4 1073.05 150 1073.05 175.2C1073.05 197.2 1068.25 217.2 1058.65 235.2C1049.45 253.2 1036.45 267.6 1019.65 278.4C1003.25 288.8 984.248 294 962.648 294H901.448ZM926.048 256.8H952.448C978.448 256.8 998.248 250 1011.85 236.4C1025.45 222.4 1032.05 202 1031.65 175.2C1031.25 148 1024.25 127.2 1010.65 112.8C997.048 98.4 977.448 91.2 951.848 91.2H926.648C914.648 91.2 908.648 97.2 908.648 109.2V238.8C908.648 250.8 914.448 256.8 926.048 256.8ZM1139.09 300C1133.89 300 1129.09 298.2 1124.69 294.6C1120.29 291.4 1118.09 286.6 1118.09 280.2V70.8C1118.09 64 1120.29 59 1124.69 55.8C1129.09 52.6 1133.89 51 1139.09 51C1144.69 51 1149.49 52.6 1153.49 55.8C1157.89 59 1160.09 64 1160.09 70.8V280.2C1160.09 286.6 1157.89 291.4 1153.49 294.6C1149.49 298.2 1144.69 300 1139.09 300ZM1221.84 300C1216.64 300 1212.04 298.2 1208.04 294.6C1204.04 291 1202.04 286.2 1202.04 280.2C1202.04 278.2 1202.44 275.6 1203.24 272.4L1278.24 69C1281.04 62.2 1285.24 57 1290.84 53.4C1296.44 49.8 1302.44 48 1308.84 48C1315.24 48 1321.24 49.8 1326.84 53.4C1332.84 57 1337.24 62.2 1340.04 69L1419.84 272.4C1420.64 275.6 1421.04 278.2 1421.04 280.2C1421.04 286.2 1419.04 291 1415.04 294.6C1411.04 298.2 1406.44 300 1401.24 300C1397.64 300 1393.84 299 1389.84 297C1386.24 295.4 1383.44 292.6 1381.44 288.6L1361.64 235.8C1361.24 233.4 1359.64 232.2 1356.84 232.2H1265.04C1262.24 232.2 1260.44 233.4 1259.64 235.8L1241.64 288.6C1239.64 292.6 1236.64 295.4 1232.64 297C1229.04 299 1225.44 300 1221.84 300ZM1283.04 196.2H1337.04C1339.44 196.2 1341.24 195.4 1342.44 193.8C1344.04 191.8 1344.44 189.4 1343.64 186.6L1314.84 104.4C1313.64 100.4 1311.84 98.4 1309.44 98.4C1306.64 98.4 1304.64 100.4 1303.44 104.4L1276.44 187.2C1275.64 189.6 1275.84 191.8 1277.04 193.8C1278.64 195.4 1280.64 196.2 1283.04 196.2ZM1493.2 294C1483.2 294 1475.2 291 1469.2 285C1463.2 279 1460.2 271 1460.2 261V70.8C1460.2 64 1462.4 59 1466.8 55.8C1471.6 52.6 1476.6 51 1481.8 51C1487 51 1491.6 52.6 1495.6 55.8C1500 59 1502.2 64 1502.2 70.8V241.2C1502.2 247.2 1503.4 251.4 1505.8 253.8C1508.2 255.8 1512.2 256.8 1517.8 256.8H1579.6C1586 256.8 1590.6 258.8 1593.4 262.8C1596.6 266.8 1598.2 271 1598.2 275.4C1598.2 280.2 1596.6 284.6 1593.4 288.6C1590.6 292.2 1586 294 1579.6 294H1493.2ZM40 599C35.6667 599 31.6667 597.333 28 594C24.3333 591 22.5 587.333 22.5 583V421.5C22.5 412.5 25.3333 405.667 31 401C36.6667 396.333 43 394 50 394H103C114.333 394 124.833 396.333 134.5 401C144.5 405.333 152.5 411.833 158.5 420.5C164.5 429.167 167.5 439.833 167.5 452.5C167.5 472.167 161.167 487.833 148.5 499.5C136.167 511.167 121.167 517 103.5 517H70C61.6667 517 57.5 522 57.5 532V583C57.5 587.333 55.6667 591 52 594C48.6667 597.333 44.6667 599 40 599ZM67.5 487H98C106.333 487 114.333 484.5 122 479.5C130 474.5 134 465.833 134 453.5C134 443.833 130.333 436.667 123 432C116 427 108.333 424.5 100 424.5H69C60.6667 424.5 56.5 428.5 56.5 436.5V473.5C56.5 482.5 60.1667 487 67.5 487ZM219.676 599C215.342 599 211.342 597.333 207.676 594C204.342 591 202.676 587.333 202.676 583V421.5C202.676 412.5 205.676 405.667 211.676 401C218.009 396.333 224.676 394 231.676 394H280.676C292.009 394 302.509 396.5 312.176 401.5C322.176 406.167 330.176 413 336.176 422C342.176 430.667 345.176 441.167 345.176 453.5C345.176 465.167 341.676 476.333 334.676 487C328.009 497.333 319.342 504.333 308.676 508C313.342 510 317.676 513.333 321.676 518C326.009 522.333 329.842 528.167 333.176 535.5L351.176 576C352.176 578 352.676 580.167 352.676 582.5C352.676 588.5 350.676 592.833 346.676 595.5C343.009 598.167 339.176 599.5 335.176 599.5C328.509 599.5 323.842 596.333 321.176 590L300.676 542C296.342 532.333 290.842 525.667 284.176 522C277.509 518.333 270.176 516.5 262.176 516.5H249.676C241.009 516.5 236.676 521.5 236.676 531.5V583C236.676 587.333 235.009 591 231.676 594C228.342 597.333 224.342 599 219.676 599ZM247.676 486.5H275.676C284.009 486.5 292.009 483.833 299.676 478.5C307.676 472.833 311.676 464.833 311.676 454.5C311.676 444.5 308.009 437 300.676 432C293.676 427 286.009 424.5 277.676 424.5H249.176C240.842 424.5 236.676 428.667 236.676 437V475C236.676 482.667 240.342 486.5 247.676 486.5ZM412.793 594C404.46 594 397.793 591.5 392.793 586.5C387.793 581.5 385.293 574.833 385.293 566.5V420C385.293 412.333 387.793 406.167 392.793 401.5C398.126 396.5 404.293 394 411.293 394H486.793C492.46 394 496.46 395.5 498.793 398.5C501.46 401.167 502.793 404.667 502.793 409C502.793 413 501.293 416.5 498.293 419.5C495.626 422.5 491.793 424 486.793 424H433.293C424.626 424 420.293 428.333 420.293 437V464.5C420.293 473.167 424.293 477.5 432.293 477.5H481.793C487.46 477.5 491.46 479 493.793 482C496.46 485 497.793 488.5 497.793 492.5C497.793 496.167 496.293 499.667 493.293 503C490.626 506 486.793 507.5 481.793 507.5H432.293C424.293 507.5 420.293 511.667 420.293 520V550.5C420.293 559.167 424.46 563.5 432.793 563.5H491.793C497.46 563.5 501.46 565.167 503.793 568.5C506.46 571.5 507.793 575 507.793 579C507.793 583 506.293 586.5 503.293 589.5C500.626 592.5 496.793 594 491.793 594H412.793ZM610.449 599C595.783 599 581.616 596.5 567.949 591.5C554.616 586.5 544.283 579.333 536.949 570C534.283 566.333 532.949 562.667 532.949 559C532.949 554.667 534.616 551 537.949 548C541.616 544.667 545.616 543 549.949 543C552.283 543 554.616 543.5 556.949 544.5C559.283 545.167 561.116 546.5 562.449 548.5C567.783 554.833 574.949 559.833 583.949 563.5C593.283 567.167 602.949 569 612.949 569C624.616 569 634.116 566.167 641.449 560.5C649.116 554.833 652.949 547.333 652.949 538C652.949 527.333 648.449 519.833 639.449 515.5C630.783 510.833 620.616 507.5 608.949 505.5C598.283 503.5 587.449 500.667 576.449 497C565.449 493 556.283 487.333 548.949 480C541.616 472.333 537.949 462 537.949 449C537.949 431.333 544.616 417.333 557.949 407C571.616 396.667 589.783 391.5 612.449 391.5C624.449 391.5 635.449 393.333 645.449 397C655.449 400.333 663.783 405 670.449 411C674.449 414.333 676.449 418.5 676.449 423.5C676.449 427.5 674.949 431 671.949 434C668.949 437 665.449 438.5 661.449 438.5C657.449 438.5 653.616 437.167 649.949 434.5C639.283 425.833 626.116 421.5 610.449 421.5C583.783 421.5 570.449 430.5 570.449 448.5C570.449 457.167 574.449 463.167 582.449 466.5C590.783 469.5 601.949 472.667 615.949 476C622.616 477.333 629.783 479.333 637.449 482C645.449 484.333 653.116 487.833 660.449 492.5C667.783 496.833 673.783 502.833 678.449 510.5C683.116 517.833 685.449 527.167 685.449 538.5C685.449 556.5 678.449 571.167 664.449 582.5C650.783 593.5 632.783 599 610.449 599ZM780.254 599C774.921 599 770.587 597.5 767.254 594.5C764.254 591.5 762.754 587.667 762.754 583V437.5C762.754 429.167 758.421 425 749.754 425H718.254C707.921 425 702.754 419.833 702.754 409.5C702.754 399.167 707.921 394 718.254 394H841.754C846.421 394 850.254 395.5 853.254 398.5C856.254 401.167 857.754 404.833 857.754 409.5C857.754 414.167 856.254 418 853.254 421C850.254 423.667 846.421 425 841.754 425H810.754C802.087 425 797.754 429.167 797.754 437.5V583C797.754 587.667 796.087 591.5 792.754 594.5C789.754 597.5 785.587 599 780.254 599ZM905.293 599C900.96 599 896.96 597.5 893.293 594.5C889.626 591.833 887.793 587.833 887.793 582.5V408C887.793 402.333 889.626 398.167 893.293 395.5C896.96 392.833 900.96 391.5 905.293 391.5C909.96 391.5 913.96 392.833 917.293 395.5C920.96 398.167 922.793 402.333 922.793 408V582.5C922.793 587.833 920.96 591.833 917.293 594.5C913.96 597.5 909.96 599 905.293 599ZM1062.75 599C1043.75 599 1026.42 594.5 1010.75 585.5C995.421 576.167 983.087 563.667 973.754 548C964.754 532 960.254 514 960.254 494C960.254 473 964.754 454.667 973.754 439C983.087 423 995.587 410.667 1011.25 402C1027.25 393.333 1045.09 389 1064.75 389C1078.42 389 1091.09 390.833 1102.75 394.5C1114.42 397.833 1125.42 403.333 1135.75 411C1139.75 414.333 1141.75 418.833 1141.75 424.5C1141.75 428.833 1140.25 432.667 1137.25 436C1134.59 439 1130.92 440.5 1126.25 440.5C1123.25 440.5 1119.92 439.333 1116.25 437C1108.25 431 1099.92 426.667 1091.25 424C1082.59 421.333 1073.92 420 1065.25 420C1044.92 420 1028.09 426.833 1014.75 440.5C1001.75 453.833 995.254 471.667 995.254 494C995.254 515.667 1001.42 533.5 1013.75 547.5C1026.42 561.167 1042.75 568 1062.75 568C1074.75 568 1085.25 565.833 1094.25 561.5C1103.59 557.167 1110.92 551.667 1116.25 545C1121.92 538 1125.09 531.167 1125.75 524.5C1125.75 519.167 1123.09 516.5 1117.75 516.5H1082.25C1071.25 516.5 1065.75 511.333 1065.75 501C1065.75 496.333 1067.25 492.667 1070.25 490C1073.25 487.333 1077.25 486 1082.25 486H1139.25C1146.59 486 1151.92 487.667 1155.25 491C1158.59 494 1160.25 500 1160.25 509C1160.25 525.333 1156.09 540.333 1147.75 554C1139.75 567.667 1128.42 578.667 1113.75 587C1099.09 595 1082.09 599 1062.75 599ZM1222.85 594C1214.52 594 1207.85 591.5 1202.85 586.5C1197.85 581.5 1195.35 574.833 1195.35 566.5V420C1195.35 412.333 1197.85 406.167 1202.85 401.5C1208.18 396.5 1214.35 394 1221.35 394H1296.85C1302.52 394 1306.52 395.5 1308.85 398.5C1311.52 401.167 1312.85 404.667 1312.85 409C1312.85 413 1311.35 416.5 1308.35 419.5C1305.68 422.5 1301.85 424 1296.85 424H1243.35C1234.68 424 1230.35 428.333 1230.35 437V464.5C1230.35 473.167 1234.35 477.5 1242.35 477.5H1291.85C1297.52 477.5 1301.52 479 1303.85 482C1306.52 485 1307.85 488.5 1307.85 492.5C1307.85 496.167 1306.35 499.667 1303.35 503C1300.68 506 1296.85 507.5 1291.85 507.5H1242.35C1234.35 507.5 1230.35 511.667 1230.35 520V550.5C1230.35 559.167 1234.52 563.5 1242.85 563.5H1301.85C1307.52 563.5 1311.52 565.167 1313.85 568.5C1316.52 571.5 1317.85 575 1317.85 579C1317.85 583 1316.35 586.5 1313.35 589.5C1310.68 592.5 1306.85 594 1301.85 594H1222.85Z" fill="url(#paint0_linear_382_84)"/>
<path d="M2535.59 336.148C2535.59 425.273 2499.79 510.747 2436.06 573.768C2372.34 636.789 2285.91 672.193 2195.79 672.193C2105.67 672.193 2019.25 636.789 1955.52 573.768C1891.8 510.747 1856 425.273 1856 336.148C1856 247.023 1891.8 161.549 1955.52 98.528C2019.25 35.5072 2105.67 0.102539 2195.79 0.102539C2285.91 0.102539 2372.34 35.5072 2436.06 98.528C2499.79 161.549 2535.59 247.023 2535.59 336.148Z" fill="#F9F9F9"/>
<path fill-rule="evenodd" clip-rule="evenodd" d="M2099.32 208.604C2128.15 217.596 2066.51 247.369 2086.3 227.079C2091.51 220.429 2084.36 212.308 2097.24 210.898L2098.08 209.278L2099.32 208.604ZM2045.57 92.146C2066.59 85.8428 2068.32 75.6406 2089.49 65.8044C2093.86 55.5191 2103.82 51.7158 2112.26 46.3579C2093.2 49.8928 2108.45 32.4317 2089.23 47.3075C2097.45 33.1211 2063.17 42.7531 2087.37 42.3762C2075.42 55.9049 2050.17 77.6612 2031.3 88.6014C2028.02 86.3022 2055.37 63.6267 2031.6 82.6704C2024.11 96.2902 2000.81 101.068 2016.66 84.3988C2028.05 78.3445 2023.74 64.2445 2032.7 72.3855C2047.48 66.017 2044.11 64.4504 2058.48 56.8454C2046.36 53.9548 2030.35 67.0923 2017.7 70.2474C2051.12 42.7792 1996.58 65.6044 1989.56 81.9285C1977.26 94.3162 1948 119.754 1976.83 97.7643C1983.67 101.446 2019.26 59.8288 2015.69 81.6273C2007.77 88.8601 2004.82 95.0808 1995.64 99.8707C1980.83 115.678 2025.11 85.9392 1997.86 108.124C1979.74 120.171 1982.39 143.976 1964.32 155.28C1952.46 158.944 1949.15 189.484 1945.99 178.728C1929.64 163.682 1979.43 150.686 1951.01 151.971C1948.85 146.36 1947.37 160.634 1941.05 151.869C1933.24 162.513 1942.84 176.703 1927.63 173.9C1913.4 174.012 1946.6 157.912 1920.83 162.483C1916.8 160.562 1910.3 171.014 1903.82 179.656C1885.23 193.24 1879.11 213.876 1871.9 236.913C1850.96 303.836 1851.67 392.67 1878.42 455.665C1937.29 594.28 2064.5 677.534 2210.14 671.393C2196.44 665.767 2165.19 646.158 2193.87 633.639C2177.65 622.281 2185.25 605.09 2163.02 593.824C2177.72 581.165 2166.22 562.577 2147.71 566.569C2131.24 569.045 2122.43 549.295 2105.22 557.787C2081 559.39 2054.62 550.806 2032.62 539.338C2011.84 519.419 1988.99 494.631 1990.54 466.741C1996.01 451.672 1999.42 441.98 1995.79 427.597C2013.26 412.15 2020.81 387.622 2044.57 387.782C2040.24 368.018 2096.35 345.089 2058.81 343.859C2058.17 324.536 2060.71 318.579 2068.58 299.519C2066.16 266.705 2102.2 308.075 2110.72 289.108C2127.9 269.589 2079.94 247.923 2117.75 253.274C2132.3 253.463 2137.26 240.637 2118.22 246.439C2103.52 245.395 2090.44 248.806 2109.27 236.485C2094.07 232.082 2126.56 225.907 2110.51 215.686C2109.64 209.822 2117.18 207.42 2109.28 208.116C2105.25 202.604 2120.93 195.305 2107.37 192.115C2114.56 171.529 2113.68 188.385 2118.46 185.593C2124.28 184.443 2131.67 192.089 2122.24 200.677C2130.38 215.413 2140.99 232.198 2136.14 242.456C2144.75 235.581 2161.29 230.005 2166 223.544C2153.38 199.886 2191.44 188.336 2174.51 209.668C2167.68 225.537 2187.01 223.045 2174.41 213.739C2184.67 216.096 2191.17 205.578 2182.12 194.292C2180.47 178.495 2162.5 207.894 2158.74 189.289C2147.01 161.113 2189.52 157.058 2194.64 133.075C2184.46 135.31 2218.74 101.573 2233.57 117.288C2249.95 118.074 2282.21 137.876 2248.44 133.868C2249.43 132.753 2253.56 151.938 2265.03 149.507C2277.99 152.567 2256.22 140.181 2267.71 141.227C2265.27 131.852 2276.27 125.695 2264.55 118.035C2283.96 115.175 2268.08 125.934 2280.97 131.832C2294.33 140.879 2273.1 100.992 2292.42 116.045C2316.83 90.187 2263.58 114.375 2262.61 90.8129C2251.81 72.4586 2268.99 58.8045 2268.84 84.0441C2273.49 102.338 2294.43 97.0506 2308.72 99.7228C2315.1 101.004 2275.27 82.4065 2288.23 76.2299C2297.46 73.3138 2301.04 76.2437 2295.38 70.3979C2291.53 63.6658 2283.72 55.6912 2280.04 48.7089C2255.77 35.167 2310.05 48.4544 2291.42 34.4235C2283.26 34.6776 2298.04 19.9017 2277.5 23.2338C2262.93 32.7077 2236.3 7.38212 2264.44 21.6967C2286.26 23.4727 2241.79 3.18788 2230.97 1.88704C2196.2 -2.29267 2168.64 1.16567 2134.72 5.5212C2116.1 7.91249 2119.24 21.3121 2133.16 18.4973C2129.4 29.2561 2110.5 26.3414 2130.72 27.2638C2118.03 32.6361 2156.83 34.2135 2139.13 45.3725C2149.57 50.2971 2166.07 58.3839 2154.84 60.4595C2177.27 59.9247 2138.81 78.5735 2137.75 87.958C2122.54 94.0079 2109.49 110.281 2103.32 104.117C2114.66 112.837 2092.33 114.411 2086.2 110.99C2071 105.516 2049.33 120.614 2034.38 130.958C2007.79 149.389 2025.85 101.564 2045.56 92.1546L2045.57 92.146ZM2361.1 622.676C2369.56 605.196 2385.28 593.413 2401.59 580.58C2422.46 572.911 2387.66 610.114 2376.01 614.662C2371.36 617.864 2366.76 621.4 2361.1 622.676ZM2365.08 597.791C2362.82 622.738 2326.96 623.403 2315.48 641.76C2303.87 647.568 2279.05 663.97 2308.36 653.306C2383.35 626.023 2423.19 586.832 2447.37 562.023C2502.65 505.314 2537.43 419.46 2535.43 325.998C2532.8 319.161 2520.05 259.12 2518.27 287.611C2518.06 317.727 2517.37 347.965 2519.88 377.922C2511.27 417.981 2498.99 331.113 2496.63 353.165C2487.81 351.035 2486.82 346.375 2475.86 340.972C2467.86 353.126 2450.01 368.345 2438.81 359.191C2431.1 382.779 2411.32 362.566 2403.89 356.908C2385.11 372.833 2430.56 390.788 2435.58 378.42C2441.63 360.015 2437.89 363.953 2449.37 370.843C2463.96 373.936 2451.8 401.816 2447.38 414.493C2435.45 430.472 2429.47 453.124 2409.67 466.16C2398.41 480.891 2383.84 488.879 2383.99 462.418C2370.6 443.039 2353.3 438.686 2342.45 416.733C2341.29 400.36 2327.5 395.913 2323.64 405.885C2314.31 399.755 2337.65 432.408 2343.23 436.888C2351.82 461.319 2367.53 478.22 2391.95 485.312C2393.95 518.12 2445.08 434.81 2432.02 477.864C2422.71 509.958 2397.56 532.853 2380.47 560.494C2370.5 571.902 2356.8 585.401 2365.07 597.788L2365.08 597.791ZM2315.31 589.829C2326.08 590.205 2340.29 571.725 2326.71 573.295C2317.49 573.508 2317.77 583.44 2315.31 589.829ZM2192.88 74.2222C2201.68 61.3141 2210.03 76.4323 2201.6 77.182C2212.09 89.1681 2192.62 73.165 2195.23 92.2533C2192.17 91.1173 2178.64 62.1581 2192.88 74.2222ZM2213.78 147.88C2215.88 160.991 2189.89 169.708 2211.79 179.733C2209.51 193.171 2198.95 216.357 2187.53 216.775C2172.21 227.783 2206.28 226.466 2211.74 217.995C2224.34 223.256 2221.47 212.382 2223.97 205.564C2218.51 190.246 2242.39 206.984 2229.06 188.872C2215.47 200.6 2237.71 175.91 2246.42 179.732C2242.44 169.403 2213.91 196.165 2218.76 174.755C2200.23 162.509 2248.17 140.029 2213.78 147.88ZM2276.6 274.732C2277.78 282.043 2274.57 294.118 2268.84 303.221C2282.69 319.94 2310.09 290.489 2331.29 303.242C2357.24 286.969 2300.66 263.109 2295.84 289.007C2285.03 280.719 2302.09 268.97 2284.56 271.282C2280.24 270.538 2280.19 263.459 2276.6 274.732ZM2381.01 305.15C2398.33 314.596 2416.97 296.691 2395.92 285.618C2386.77 273.842 2384.06 264.119 2371.58 258.925C2365.28 256.342 2385.27 228.386 2363.79 241.23C2348.85 248.057 2356.19 268.332 2364.33 274.639C2385.51 287.768 2383.34 280.291 2381.01 305.15ZM2168 340.983C2153.79 350.003 2154.79 327.969 2160.59 321.522C2159.53 314.258 2171.94 295.388 2167.5 316.936C2164.26 323.561 2172.87 333.022 2168 340.983ZM2080.41 348.947C2090.37 372.977 2136.6 345.664 2160.95 358.654C2172.67 354.281 2180.27 356.741 2176.15 369.331C2159.27 375.436 2181.31 384.329 2186.91 382.788C2203.24 385.005 2207.27 399.786 2225.06 401.63C2239 405.785 2228.83 370.007 2253.38 381.85C2258.58 390.077 2270.18 385.92 2279.86 388.174C2296.22 393.711 2304.79 373.994 2320.36 376.734C2325.71 364.485 2324.17 327.584 2322.19 333.116C2312.72 341.711 2297.2 342.41 2284.48 348.587C2278 343.687 2271.86 354.667 2269.75 337.349C2265.31 327.803 2264.45 310.761 2246.63 327.048C2241.41 328.176 2263.1 340.026 2258.61 346.204C2247.68 339.056 2248.75 344.797 2246.74 354.92C2236.62 348.814 2228.68 322.152 2214.39 310.193C2199.02 302.907 2197.78 288.149 2186.97 285.46C2178.58 307.596 2223.73 322.613 2216.55 329.034C2198.55 318.015 2224.98 349.731 2201.17 348.816C2201.33 365.721 2168.77 338.034 2197.55 345.96C2218.03 333.878 2181.12 319.578 2174.42 307.906C2168.01 281.917 2151.04 320.851 2138 299.231C2136.63 310.71 2109.62 319.513 2112.26 337.003C2102.62 346.053 2094.65 349.201 2080.41 348.948L2080.41 348.947ZM2084.39 137.921C2085.17 138.134 2096.32 119.017 2094.84 130.455C2121.41 133.844 2093.41 159.105 2079.41 141.903L2084.39 137.921Z" fill="url(#paint1_linear_382_84)"/>
<g filter="url(#filter0_ddd_382_84)">
<path d="M2078.4 421.003L2077.55 420.22L2076.7 419.436L2075.85 418.652L2075.01 417.867L2074.41 417.34L2074.29 417.233L2073.59 416.61L2072.77 415.879L2071.95 415.148L2071.13 414.417L2070.16 413.553L2069.19 412.688L2068.22 411.822L2067.25 410.955L2066.28 410.088L2065.31 409.22L2064.34 408.352L2063.37 407.483L2062.4 406.613L2061.43 405.742L2060.46 404.871L2059.49 403.999L2059.58 403.423L2059.66 402.848L2059.75 402.272L2059.83 401.695L2059.89 401.327L2059.94 400.959L2060 400.591L2060.06 400.223L2060.11 399.854L2060.17 399.486L2060.22 399.117L2060.28 398.747L2060.33 398.378L2060.39 398.009L2060.44 397.639L2060.5 397.269L2060.55 396.899L2060.61 396.528L2060.66 396.158L2060.72 395.787L2060.76 395.504L2060.81 395.34L2060.88 395.233L2061 395.16L2061.75 394.885L2062.03 394.725L2062.29 394.624L2062.37 394.564L2062.61 394.26L2062.7 394.205L2062.9 394.148L2063 394.107L2063.41 393.815L2063.82 393.617L2064.47 393.437L2064.67 393.336L2065.24 392.935L2065.88 392.63L2066.26 392.367L2066.54 392.27L2066.63 392.216L2067.01 391.926L2067.21 391.872L2067.46 391.921L2067.7 391.998L2067.82 392.021L2067.94 392.025L2068.06 392L2068.67 392.128L2069.24 391.679L2069.89 391.508L2070.31 391.527L2070.91 391.662L2071.81 392.196L2072.33 391.828L2073.1 391.855L2073.93 391.756L2074.7 391.782L2075.5 391.901L2076.18 392.004L2076.85 391.969L2077.55 391.984L2077.65 392.58L2078.08 392.823L2078.64 392.728L2079.32 392.071L2079.93 391.358L2080.42 390.67L2081.04 390.18L2081.67 389.871L2082.35 389.435L2082.86 389.152L2083.48 388.93L2084.33 388.697L2085.18 388.195L2085.91 387.493L2086.48 387.264L2087.16 387.184L2088 387.265L2088.94 387.181L2090.05 386.804L2090.07 386.401L2090.09 385.997L2090.4 385.772L2090.77 385.33L2090.55 384.811L2090.56 384.687L2090.55 384.57L2090.52 384.445L2090.46 384.378L2090.28 384.252L2090.2 384.144L2090.09 383.883L2090.02 383.788L2089.93 383.749L2089.84 383.78L2089.66 383.907L2089.56 383.936L2089.47 383.917L2089.41 383.85L2089.41 383.737L2089.46 383.618L2089.61 383.44L2089.64 383.296L2089.68 382.811L2089.72 382.698L2089.8 382.622L2090.13 382.447L2090.54 382.481L2090.86 380.844L2091.26 380.705L2091.48 380.793L2091.69 380.805L2093.32 380.756L2094.55 380.575L2095.52 380.583L2095.39 379.923L2095.16 378.866L2095.5 378.736L2096.52 378.801L2097.54 378.674L2098.28 378.821L2098.62 378.888L2099.01 378.965L2099.43 379.048L2099.88 379.138L2100.35 379.23L2100.82 379.324L2101.29 379.418L2101.76 379.509L2102.2 379.597L2102.61 379.679L2102.99 379.753L2103.31 379.818L2103.58 379.872L2103.79 379.912L2103.92 379.938L2103.96 379.947L2104.37 380.028L2104.59 380.008L2104.73 379.796L2104.73 379.659L2104.65 379.566L2104.54 379.515L2104.44 379.5L2104.22 379.551L2104.14 379.536L2104.13 379.428L2104.15 379.391L2104.25 379.333L2104.29 379.304L2104.34 379.24L2104.35 379.189L2104.36 379.134L2104.38 379.059L2104.56 378.485L2104.67 378.264L2104.74 378.158L2104.84 378.055L2104.94 378.022L2105.17 378.023L2105.38 377.969L2105.58 377.858L2105.95 377.551L2105.89 377.393L2104.54 375.992L2104.22 375.812L2104.06 375.633L2103.51 374.286L2103.77 374.153L2103.82 374.115L2103.86 374.066L2103.89 374.008L2103.91 373.944L2103.95 373.805L2103.97 373.654L2103.96 373.514L2103.88 373.411L2103.74 373.272L2103.62 373.12L2103.53 372.943L2103.49 372.728L2103.42 372.528L2103.18 372.218L2103.16 371.997L2103.26 371.358L2103.34 371.201L2103.44 371.048L2103.6 370.7L2103.69 370.591L2103.79 370.423L2103.8 370.205L2103.64 369.579L2103.59 369.493L2103.51 369.408L2103.33 369.312L2103.26 369.242L2103.24 369.134L2103.28 369.037L2103.34 368.979L2103.41 368.933L2103.48 368.871L2103.53 368.781L2103.55 368.71L2103.52 368.51L2103.52 368.181L2103.58 367.877L2103.99 366.859L2104.03 366.73L2104.03 366.644L2104.03 366.55L2103.82 365.281L2103.73 364.968L2103.56 364.689L2104.24 364.069L2104.18 364.025L2104 363.935L2103.44 363.161L2103.5 363.056L2103.85 362.655L2104.03 362.377L2104.11 362.333L2104.14 362.288L2104.05 362.171L2103.54 361.722L2103.38 361.52L2103.12 361.296L2103.06 361.195L2103.04 361.1L2103.05 361.008L2103.04 360.927L2102.98 360.863L2102.74 360.803L2102.57 360.657L2102.43 360.471L2102.25 360.294L2102.09 360.205L2102.01 360.059L2101.99 359.876L2102.02 359.613L2102.15 359.586L2102.17 359.598L2102.19 359.603L2102.2 359.616L2102.22 359.647L2102.39 359.589L2102.57 359.659L2102.75 359.773L2102.93 359.846L2103.29 359.849L2103.41 359.91L2103.45 359.924L2103.49 359.916L2103.6 359.853L2104.13 359.782L2104.28 359.699L2104.33 359.695L2104.49 359.725L2104.57 359.72L2104.66 359.672L2104.87 359.487L2105.24 359.421L2105.3 359.389L2105.37 359.278L2106.1 358.821L2106.21 358.8L2106.73 358.821L2106.88 358.8L2106.91 358.788L2106.94 358.766L2107.11 358.607L2107.22 358.593L2107.34 358.536L2107.44 358.46L2107.51 358.387L2107.57 358.26L2107.69 357.954L2107.76 357.842L2107.84 357.748L2108.1 357.276L2108.15 357.213L2108.22 357.192L2108.35 357.204L2108.38 357.176L2108.55 356.997L2108.62 356.963L2108.76 356.888L2108.95 356.755L2109.03 356.661L2109.08 356.626L2109.28 356.609L2109.39 356.556L2109.49 356.493L2109.58 356.451L2109.72 356.431L2109.79 356.447L2109.81 356.508L2109.83 356.539L2109.9 356.521L2110.13 356.429L2110.29 356.22L2110.42 356.203L2110.46 356.235L2110.5 356.288L2110.54 356.34L2110.61 356.371L2110.66 356.387L2110.76 356.436L2110.82 356.454L2110.88 356.484L2110.91 356.537L2110.92 356.6L2110.96 356.658L2111.02 356.679L2111.22 356.697L2111.33 356.687L2111.44 356.65L2111.55 356.586L2111.64 356.406L2111.71 356.405L2111.78 356.44L2111.84 356.456L2111.9 356.431L2111.94 356.391L2112.27 355.895L2112.29 355.823L2112.28 355.803L2112.28 355.76L2112.28 355.715L2112.29 355.687L2112.32 355.683L2112.35 355.705L2112.38 355.733L2112.4 355.746L2112.45 355.75L2112.56 355.777L2112.62 355.779L2112.86 355.702L2113.02 355.679L2113.08 355.731L2113.1 355.811L2113.15 355.856L2113.21 355.885L2113.24 355.915L2113.25 355.988L2113.21 356.074L2113.21 356.148L2113.28 356.259L2113.41 356.352L2113.79 356.493L2114.01 356.627L2114.12 356.667L2114.18 356.663L2114.35 356.651L2114.61 356.56L2114.86 356.428L2115.06 356.285L2115.31 355.921L2115.39 355.76L2115.64 355.363L2115.71 355.214L2115.73 355.14L2115.75 355.101L2115.8 355.075L2115.86 355.054L2115.91 355.027L2116.21 354.787L2116.32 354.734L2116.68 354.665L2116.75 354.632L2116.78 354.591L2116.91 354.532L2116.96 354.497L2116.99 354.44L2117.04 354.285L2117.07 354.232L2117.18 354.193L2117.32 354.185L2117.56 354.21L2117.68 354.204L2117.79 354.157L2117.88 354.093L2118.32 353.88L2118.53 353.849L2118.64 353.78L2118.74 353.7L2118.84 353.649L2118.95 353.639L2119.37 353.667L2119.44 353.672L2119.53 353.643L2119.73 353.543L2120.09 353.5L2120.18 353.447L2120.25 353.393L2120.39 353.326L2120.46 353.274L2120.49 353.225L2120.51 353.169L2120.54 353.112L2120.6 353.06L2120.7 353.035L2120.95 353.012L2121.18 352.907L2121.57 352.964L2121.69 352.94L2121.93 352.854L2122.06 352.85L2122.29 352.89L2122.4 352.894L2122.53 352.873L2122.87 352.76L2122.99 352.757L2123.09 352.791L2123.31 352.914L2123.43 352.961L2123.56 352.973L2123.8 352.941L2124.8 353.033L2124.89 353.04L2124.95 353.035L2125.08 352.992L2125.14 352.984L2125.19 352.999L2125.3 353.05L2125.36 353.06L2125.67 353.023L2125.98 353.05L2126.23 353.142L2126.29 353.157L2126.78 353.17L2128.2 352.964L2128.31 352.934L2128.43 352.945L2128.54 352.993L2128.63 353.073L2128.66 353.139L2128.66 353.202L2128.68 353.253L2128.74 353.282L2128.8 353.298L2128.9 353.346L2128.95 353.361L2129.74 353.432L2129.93 353.399L2130.5 353.069L2130.88 352.934L2131.04 352.834L2131.21 352.654L2131.26 352.566L2131.42 352.446L2131.76 352.264L2132.01 352.25L2132.05 352.263L2132.21 352.308L2132.37 352.449L2132.49 352.631L2132.62 352.786L2132.82 352.886L2133 352.906L2133.03 352.91L2133.22 352.836L2133.29 352.75L2133.33 352.654L2133.37 352.477L2133.42 352.481L2133.75 352.699L2133.95 352.784L2134.6 352.92L2134.71 352.921L2134.92 352.889L2135.04 352.892L2135.1 352.882L2135.15 352.846L2135.19 352.806L2135.23 352.782L2135.28 352.781L2135.4 352.811L2135.45 352.816L2135.67 352.742L2136.05 352.457L2136.24 352.361L2136.73 352.283L2136.99 352.291L2137.19 352.361L2137.37 352.515L2137.45 352.542L2137.51 352.543L2137.63 352.529L2137.82 352.552L2137.87 352.564L2138.11 352.634L2138.21 352.707L2138.45 352.618L2138.53 352.612L2138.59 352.636L2138.72 352.717L2138.79 352.742L2138.86 352.732L2139.02 352.66L2139.09 352.645L2139.18 352.667L2139.32 352.757L2139.39 352.785L2140.06 352.791L2140.13 352.811L2140.2 352.851L2140.28 352.9L2140.32 352.948L2140.38 352.994L2140.56 353.025L2140.63 353.069L2140.81 353.019L2140.86 353.024L2141.04 353.042L2141.44 353.139L2141.83 353.15L2141.93 353.182L2142.76 353.693L2142.84 353.803L2142.86 353.853L2142.93 353.876L2143 353.887L2143.05 353.902L2143.09 353.942L2143.12 354.033L2143.14 354.061L2143.22 354.119L2143.33 354.168L2143.44 354.203L2143.54 354.215L2143.38 354.529L2143.39 354.641L2143.53 354.782L2144.12 355.206L2144.29 355.279L2144.48 355.315L2144.86 355.317L2145.18 355.274L2145.21 355.27L2145.38 355.295L2145.4 355.282L2145.49 355.208L2145.53 355.18L2145.76 355.128L2145.88 355.062L2145.99 354.827L2146.08 354.734L2146.19 354.663L2146.29 354.628L2146.54 354.592L2146.65 354.554L2146.87 354.408L2147.01 354.38L2147.14 354.394L2147.51 354.529L2147.73 354.554L2148.68 354.483L2149.6 354.282L2149.82 354.185L2149.96 354.035L2150 353.894L2149.99 353.778L2150.01 353.671L2150.09 353.553L2150.14 353.516L2150.38 353.382L2150.47 353.303L2150.54 353.261L2150.73 353.191L2150.98 353.163L2151.23 353.194L2151.44 353.301L2151.61 353.484L2151.64 353.5L2151.63 353.57L2151.64 353.622L2151.66 353.657L2151.71 353.675L2151.76 353.734L2151.78 354.001L2151.85 354.128L2151.94 354.107L2152.03 354.159L2152.13 354.232L2152.23 354.279L2153.04 354.448L2153.11 354.482L2153.2 354.556L2153.28 354.646L2153.32 354.727L2153.3 354.838L2153.46 354.924L2153.67 354.976L2153.81 354.99L2154.32 354.912L2154.48 354.849L2154.56 354.9L2154.7 354.955L2154.82 354.978L2154.89 354.936L2154.95 354.877L2155.21 354.715L2155.29 354.685L2155.33 354.658L2155.38 354.591L2155.43 354.513L2155.46 354.451L2155.46 354.373L2155.44 354.316L2155.26 354.054L2155.12 353.895L2155.13 353.853L2155.19 353.853L2155.3 353.835L2155.36 353.84L2155.41 353.866L2155.5 353.94L2155.55 353.96L2155.56 353.967L2155.58 353.979L2155.6 354.007L2155.62 354.022L2155.66 354.002L2155.71 353.958L2155.73 353.947L2155.76 353.948L2155.81 353.975L2155.9 354.051L2155.95 354.072L2156 354.064L2156.15 354.007L2156.23 354.017L2156.24 354.026L2156.24 354.053L2156.27 354.119L2156.28 354.199L2156.31 354.248L2156.38 354.278L2156.49 354.296L2156.53 354.317L2156.58 354.356L2156.68 354.314L2156.78 354.295L2156.95 354.472L2157.09 354.669L2157.25 354.833L2157.48 354.918L2157.54 354.912L2157.59 354.894L2157.64 354.887L2157.71 354.909L2157.77 354.948L2157.82 354.993L2157.86 355.044L2157.89 355.1L2158.16 355.114L2158.22 355.101L2158.33 355.004L2158.39 354.964L2158.33 355.096L2158.24 355.236L2158.2 355.366L2158.27 355.469L2158.15 355.648L2158.15 355.65L2158.32 355.826L2158.62 355.965L2158.84 356.032L2159.64 355.957L2159.77 355.909L2159.9 355.827L2160.72 355.559L2160.8 355.637L2160.88 355.753L2160.98 355.822L2161.23 355.846L2161.35 355.877L2161.44 355.942L2161.53 355.922L2161.59 355.964L2161.65 356.031L2161.72 356.084L2161.91 356.13L2162.1 356.14L2162.7 355.986L2162.7 355.985L2162.69 356.168L2162.68 356.249L2162.68 356.321L2162.83 356.636L2162.81 356.718L2162.7 356.773L2162.3 356.869L2162.11 356.88L2161.91 356.835L2161.7 356.829L2161.52 356.888L2161.47 356.99L2161.64 357.119L2161.73 357.274L2161.65 357.505L2161.49 357.724L2161.35 357.841L2160.63 358.144L2160.26 358.224L2160.08 358.301L2159.93 358.438L2159.89 358.665L2159.89 358.669L2160.1 358.794L2160.56 358.926L2160.66 358.997L2160.75 359.041L2160.83 359.105L2160.86 359.236L2160.85 359.367L2160.8 359.644L2160.77 359.735L2160.76 359.77L2160.39 360.454L2160.33 360.729L2160.33 360.866L2160.35 360.997L2160.35 361.121L2160.28 361.241L2160.2 361.343L2160.01 361.821L2159.94 362.188L2159.91 362.265L2159.73 362.667L2159.62 363.196L2159.6 363.484L2159.63 363.728L2159.83 364.206L2159.89 364.438L2159.88 364.647L2159.85 365.213L2159.82 365.41L2159.55 365.854L2159.46 366.077L2159.41 366.319L2159.4 366.597L2159.49 366.853L2159.68 366.985L2159.9 367.09L2160.07 367.264L2159.99 367.386L2159.59 367.844L2159.29 368.09L2159.18 368.314L2159.01 368.789L2158.83 369.123L2158.74 369.371L2158.71 369.619L2158.71 370.302L2158.68 370.39L2158.63 370.443L2158.62 370.452L2158.42 370.611L2158.34 370.701L2158.31 370.801L2158.42 371.044L2158.36 371.111L2158.15 371.206L2158.11 371.254L2158.05 371.364L2158.02 371.406L2157.97 371.443L2157.83 371.502L2157.58 371.669L2157.53 371.703L2156.98 371.863L2156.72 371.993L2156.22 372.13L2155.99 372.253L2155.85 372.468L2155.52 373.216L2155.46 373.316L2155.38 373.388L2155.27 373.428L2154.91 373.432L2154.69 373.507L2154.52 373.64L2154.36 373.797L2154.1 373.992L2153.97 374.098L2153.86 374.264L2153.78 374.745L2153.56 375.385L2153.55 375.644L2153.57 376.015L2153.59 376.133L2153.71 376.461L2153.71 376.808L2153.73 376.982L2153.99 377.639L2154.29 378.43L2154.34 378.698L2154.33 378.725L2154.21 379.589L2154.25 379.905L2154.37 380.08L2154.56 380.171L2154.81 380.234L2155 380.332L2155.54 380.858L2155.64 380.929L2155.74 380.98L2155.85 381.005L2155.97 380.997L2156.08 381.089L2156.48 381.973L2156.9 382.919L2156.94 383.137L2156.88 384.056L2156.83 384.73L2156.86 384.952L2156.87 384.961L2156.99 385.147L2157.6 385.673L2158.37 386.434L2159.38 387.429L2160.2 388.23L2160.26 388.332L2160.3 388.462L2160.33 388.936L2160.34 389.006L2160.39 389.734L2160.43 390.461L2160.48 391.186L2160.53 391.912L2160.58 392.636L2160.63 393.36L2160.68 394.082L2160.73 394.804L2160.78 395.526L2160.83 396.246L2160.88 396.965L2160.93 397.684L2160.98 398.402L2161.03 399.119L2161.08 399.835L2161.13 400.551L2159.76 401.064L2159.85 401.289L2160.12 401.724L2160.35 402.106L2160.89 403.253L2161.35 404.562L2161.56 406.124L2161.77 407.683L2161.74 408.651L2161.58 409.831L2161.3 410.848L2160.7 412.977L2160.72 413.346L2161.19 415.575L2161.15 415.815L2161.13 415.866L2160.57 417.035L2160.46 417.144L2160.3 417.204L2160.15 417.282L2160.15 417.413L2160.21 417.562L2160.24 417.697L2160.18 417.808L2159.91 418.032L2159.81 418.15L2159.69 418.5L2159.56 418.728L2159.52 418.823L2159.5 418.924L2159.72 420.622L2159.73 421.276L2159.76 421.403L2159.81 421.467L2160.04 421.64L2160.11 421.726L2160.12 421.817L2159.89 422.445L2159.84 422.654L2159.88 422.833L2159.87 422.964L2159.53 423.71L2159.4 423.817L2157.35 424.45L2157.32 424.57L2157.29 424.671L2157.23 424.751L2157.02 424.9L2156.88 425.125L2156.79 425.211L2156.61 425.477L2156.69 425.833L2157.29 427.017L2157.95 428.306L2158.47 429.34L2159.13 430.627L2159.28 431.043L2159.3 431.435L2159.2 432.229L2159.1 433.08L2158.98 433.913L2159.03 434.083L2159.77 434.681L2159.84 434.859L2159.86 435.428L2159.89 435.647L2159.98 435.772L2160.6 436.456L2160.7 436.511L2160.92 436.522L2161.59 436.381L2162.22 436.247L2162.34 436.251L2162.45 436.292L2163.44 436.792L2164.67 437.417L2166.31 438.247L2166.52 438.356L2166.69 438.48L2166.8 438.683L2167.06 439.509L2167.33 440.37L2167.34 440.388L2167.76 441.724L2168.03 442.556L2168.32 443.464L2167.91 443.647L2167.51 443.829L2167.1 444.012L2166.7 444.194L2166.29 444.376L2165.88 444.558L2165.48 444.74L2165.07 444.921L2164.67 445.104L2164.26 445.285L2163.86 445.467L2163.45 445.649L2163.05 445.83L2162.64 446.011L2162.24 446.193L2161.83 446.374L2161.43 446.555L2161.02 446.737L2160.62 446.918L2160.21 447.099L2159.81 447.279L2159.4 447.46L2159 447.641L2158.59 447.822L2158.19 448.003L2157.78 448.183L2157.38 448.364L2156.97 448.544L2156.57 448.725L2156.16 448.905L2155.76 449.085L2155.35 449.266L2154.95 449.446L2154.54 449.626L2154.14 449.806L2153.73 449.986L2153.33 450.166L2152.92 450.346L2152.52 450.525L2152.11 450.705L2151.71 450.884L2151.3 451.064L2150.9 451.244L2150.49 451.423L2150.09 451.602L2149.68 451.782L2149.28 451.961L2148.87 452.14L2148.47 452.32L2148.06 452.499L2147.66 452.677L2147.25 452.857L2146.85 453.035L2146.44 453.214L2146.04 453.393L2145.63 453.571L2145.23 453.75L2144.82 453.928L2144.42 454.107L2144.01 454.285L2143.61 454.464L2143.2 454.642L2142.8 454.82L2142.4 454.998L2141.62 455.341L2141.01 455.73L2140.57 456.011L2140.13 456.291L2139.69 456.571L2139.25 456.851L2138.78 457.155L2138.54 457.309L2138.19 457.55L2137.8 457.814L2137.41 458.077L2137.02 458.339L2136.63 458.602L2136.24 458.865L2135.85 459.127L2135.46 459.39L2135.07 459.653L2134.68 459.915L2134.29 460.177L2133.9 460.439L2133.51 460.701L2133.12 460.963L2132.73 461.224L2132.34 461.486L2131.95 461.748L2131.47 462.074L2131.21 462.204L2130.95 462.261L2130.23 462.298L2129.67 462.327L2128.44 462.391L2127.22 462.454L2126.66 462.483L2125.6 462.538L2124.55 462.592L2123.49 462.647L2122.44 462.702L2121.48 462.746L2120.52 462.79L2119.98 462.814L2119.57 462.833L2118.61 462.877L2118.02 462.904L2118.02 462.904L2117.57 462.946L2117.43 462.932L2117.35 462.908L2117.3 462.877L2117.18 462.777L2116.91 462.411L2116.67 462.265L2116.57 462.181L2116.47 462.082L2116.39 461.971L2116.32 461.827L2116.33 461.722L2116.39 461.627L2116.49 461.512L2116.55 461.406L2116.58 461.358L2116.66 461.321L2116.8 461.216L2116.84 461.121L2116.9 460.901L2116.97 460.803L2117.08 460.732L2117.2 460.686L2117.32 460.622L2117.39 460.499L2117.39 460.37L2117.35 460.268L2117.29 460.172L2117.26 460.06L2117.27 460.005L2117.32 459.895L2117.33 459.859L2117.31 459.805L2117.29 459.778L2117.26 459.756L2117.24 459.717L2117.2 459.496L2117.22 459.272L2117.5 458.123L2117.49 458.041L2117.42 457.956L2117.35 457.902L2117.16 457.813L2117.07 457.758L2116.8 457.458L2116.16 457.05L2114.71 456.512L2114.42 456.455L2113.93 456.283L2113.88 456.27L2113.77 456.23L2113.59 456.093L2113.5 456.035L2113.37 455.985L2113.29 455.942L2113.24 455.87L2113.08 455.431L2112.94 455.159L2112.77 454.91L2112.48 454.593L2112.39 454.522L2112.3 454.48L2112.18 454.484L2112.04 454.547L2111.79 454.726L2111.64 454.768L2111.56 454.745L2111.23 454.573L2111.18 454.53L2111.15 454.486L2111.11 454.451L2111.04 454.432L2110.96 454.443L2110.86 454.516L2110.79 454.536L2110.68 454.514L2110.65 454.436L2110.64 454.324L2110.61 454.197L2110.53 454.119L2110.45 454.1L2110.35 454.099L2110.23 454.074L2110.12 454.002L2109.56 453.365L2109.52 453.272L2109.59 452.839L2109.58 452.627L2109.5 452.444L2109.19 452.124L2108.99 451.979L2108.8 451.916L2108.71 451.838L2108.62 451.793L2108.4 451.724L2108.18 451.615L2108.1 451.535L2108.03 451.413L2107.95 451.194L2107.88 451.12L2107.76 451.067L2107.64 451.052L2107.42 451.067L2107.3 451.052L2107.18 451.016L2107.11 450.974L2107.08 450.894L2107.09 450.748L2107.11 450.635L2107.31 450.129L2107.47 449.503L2107.48 449.373L2107.44 448.984L2107.38 448.856L2106.81 448.315L2106.39 447.914L2105.97 447.513L2105.55 447.112L2105.13 446.712L2104.71 446.31L2104.29 445.909L2103.86 445.507L2103.44 445.105L2103.02 444.704L2102.6 444.302L2102.18 443.9L2101.83 443.564L2101.76 443.498L2101.34 443.096L2100.92 442.693L2100.49 442.291L2100.07 441.888L2099.65 441.486L2099.23 441.083L2098.81 440.679L2098.39 440.276L2097.97 439.873L2097.55 439.47L2097.13 439.067L2096.71 438.663L2096.28 438.259L2095.86 437.855L2095.44 437.451L2095.02 437.044L2094.6 436.64L2094.18 436.235L2093.76 435.831L2093.34 435.426L2092.92 435.021L2092.5 434.616L2092.08 434.211L2091.66 433.806L2091.24 433.4L2090.82 432.995L2090.39 432.589L2089.97 432.183L2089.55 431.777L2089.13 431.371L2088.71 430.964L2088.29 430.558L2087.87 430.151L2087.45 429.745L2087.03 429.338L2086.61 428.93L2086.22 428.556L2085.84 428.181L2085.45 427.806L2085.06 427.432L2084.68 427.057L2084.29 426.682L2083.9 426.306L2083.52 425.931L2083.13 425.555L2082.74 425.179L2082.36 424.803L2081.97 424.428L2081.58 424.052L2081.2 423.676L2080.81 423.299L2080.42 422.923L2079.89 422.397L2079.51 422.05L2079.14 421.702L2078.77 421.354L2078.4 421.006L2078.4 421.006L2078.4 421.005L2078.4 421.003Z" fill="#ECECEC"/>
</g>
<defs>
<filter id="filter0_ddd_382_84" x="2019.09" y="333.65" width="191.826" height="185.496" filterUnits="userSpaceOnUse" color-interpolation-filters="sRGB">
<feFlood flood-opacity="0" result="BackgroundImageFix"/>
<feColorMatrix in="SourceAlpha" type="matrix" values="0 0 0 0 0 0 0 0 0 0 0 0 0 0 0 0 0 0 127 0" result="hardAlpha"/>
<feOffset dx="-21" dy="2"/>
<feGaussianBlur stdDeviation="9.7"/>
<feColorMatrix type="matrix" values="0 0 0 0 0.2 0 0 0 0 0.329412 0 0 0 0 0.529412 0 0 0 1 0"/>
<feBlend mode="normal" in2="BackgroundImageFix" result="effect1_dropShadow_382_84"/>
<feColorMatrix in="SourceAlpha" type="matrix" values="0 0 0 0 0 0 0 0 0 0 0 0 0 0 0 0 0 0 127 0" result="hardAlpha"/>
<feOffset dx="20" dy="4"/>
<feGaussianBlur stdDeviation="11.3"/>
<feComposite in2="hardAlpha" operator="out"/>
<feColorMatrix type="matrix" values="0 0 0 0 0.27451 0 0 0 0 0.439216 0 0 0 0 0.631373 0 0 0 1 0"/>
<feBlend mode="normal" in2="effect1_dropShadow_382_84" result="effect2_dropShadow_382_84"/>
<feColorMatrix in="SourceAlpha" type="matrix" values="0 0 0 0 0 0 0 0 0 0 0 0 0 0 0 0 0 0 127 0" result="hardAlpha"/>
<feOffset dx="1" dy="28"/>
<feGaussianBlur stdDeviation="14.1"/>
<feComposite in2="hardAlpha" operator="out"/>
<feColorMatrix type="matrix" values="0 0 0 0 0.345098 0 0 0 0 0.498039 0 0 0 0 0.678431 0 0 0 1 0"/>
<feBlend mode="normal" in2="effect2_dropShadow_382_84" result="effect3_dropShadow_382_84"/>
<feBlend mode="normal" in="SourceGraphic" in2="effect3_dropShadow_382_84" result="shape"/>
</filter>
<linearGradient id="paint0_linear_382_84" x1="1576.18" y1="497.6" x2="135.691" y2="-208.729" gradientUnits="userSpaceOnUse">
<stop stop-color="#203374"/>
<stop offset="1" stop-color="#65B8D3"/>
</linearGradient>
<linearGradient id="paint1_linear_382_84" x1="2196.34" y1="0" x2="2196.34" y2="671.71" gradientUnits="userSpaceOnUse">
<stop stop-color="#2C4588"/>
<stop offset="1" stop-color="#4493C4"/>
</linearGradient>
</defs>
</svg>
