<svg width="680" height="673" viewBox="0 0 680 673" fill="none" xmlns="http://www.w3.org/2000/svg">
<path d="M679.087 336.148C679.087 425.138 643.342 510.485 579.712 573.412C516.083 636.34 429.782 671.693 339.794 671.693C249.806 671.693 163.504 636.34 99.8748 573.412C36.2455 510.485 0.5 425.138 0.5 336.148C0.5 247.158 36.2455 161.811 99.8748 98.8835C163.504 35.9559 249.806 0.602539 339.794 0.602539C429.782 0.602539 516.083 35.9559 579.712 98.8835C643.342 161.811 679.087 247.158 679.087 336.148Z" fill="#F9F9F9" stroke="#203374"/>
<path fill-rule="evenodd" clip-rule="evenodd" d="M243.319 208.604C272.15 217.596 210.512 247.369 230.297 227.079C235.51 220.429 228.356 212.308 241.244 210.898L242.076 209.278L243.319 208.604ZM189.569 92.146C210.591 85.8428 212.317 75.6406 233.487 65.8044C237.861 55.5191 247.823 51.7158 256.259 46.3579C237.198 49.8928 252.454 32.4317 233.226 47.3075C241.447 33.1211 207.168 42.7531 231.374 42.3762C219.423 55.9049 194.173 77.6612 175.301 88.6014C172.02 86.3022 199.368 63.6267 175.597 82.6704C168.111 96.2902 144.809 101.068 160.664 84.3988C172.051 78.3445 167.743 64.2445 176.7 72.3855C191.483 66.017 188.114 64.4504 202.48 56.8454C190.363 53.9548 174.35 67.0923 161.699 70.2474C195.124 42.7792 140.577 65.6044 133.563 81.9285C121.263 94.3162 91.9975 119.754 120.834 97.7643C127.665 101.446 163.265 59.8288 159.686 81.6273C151.77 88.8601 148.817 95.0808 139.638 99.8707C124.826 115.678 169.11 85.9392 141.86 108.124C123.743 120.171 126.387 143.976 108.324 155.28C96.4617 158.944 93.1533 189.484 89.9877 178.728C73.6381 163.682 123.43 150.686 95.0075 151.971C92.8465 146.36 91.3712 160.634 85.0538 151.869C77.2401 162.513 86.8383 176.703 71.6321 173.9C57.4021 174.012 90.6032 157.912 64.8335 162.483C60.7969 160.562 54.2999 171.014 47.821 179.656C29.2329 193.24 23.1143 213.876 15.9049 236.913C-5.03785 303.836 -4.32867 392.67 22.4244 455.665C81.2882 594.28 208.503 677.534 354.144 671.393C340.444 665.767 309.191 646.158 337.874 633.639C321.651 622.281 329.253 605.09 307.017 593.824C321.725 581.165 310.224 562.577 291.711 566.569C275.245 569.045 266.428 549.295 249.222 557.787C225.001 559.39 198.625 550.806 176.616 539.338C155.837 519.419 132.993 494.631 134.539 466.741C140.005 451.672 143.423 441.98 139.793 427.597C157.257 412.15 164.811 387.622 188.567 387.782C184.244 368.018 240.348 345.089 202.811 343.859C202.168 324.536 204.706 318.579 212.579 299.519C210.161 266.705 246.196 308.075 254.716 289.108C271.898 269.589 223.937 247.923 261.748 253.274C276.299 253.463 281.258 240.637 262.224 246.439C247.519 245.395 234.441 248.806 253.267 236.485C238.07 232.082 270.558 225.907 254.506 215.686C253.638 209.822 261.18 207.42 253.282 208.116C249.251 202.604 264.932 195.305 251.37 192.115C258.562 171.529 257.684 188.385 262.461 185.593C268.277 184.443 275.673 192.089 266.244 200.677C274.376 215.413 284.991 232.198 280.142 242.456C288.748 235.581 305.288 230.005 310.003 223.544C297.375 199.886 335.444 188.336 318.506 209.668C311.678 225.537 331.012 223.045 318.414 213.739C328.669 216.096 335.172 205.578 326.121 194.292C324.473 178.495 306.501 207.894 302.741 189.289C291.015 161.113 333.517 157.058 338.64 133.075C328.463 135.31 362.739 101.573 377.57 117.288C393.948 118.074 426.211 137.876 392.437 133.868C393.427 132.753 397.563 151.938 409.032 149.507C421.995 152.567 400.219 140.181 411.708 141.227C409.272 131.852 420.273 125.695 408.546 118.035C427.958 115.175 412.075 125.934 424.968 131.832C438.33 140.879 417.099 100.992 436.416 116.045C460.832 90.187 407.575 114.375 406.614 90.8129C395.807 72.4586 412.993 58.8045 412.839 84.0441C417.491 102.338 438.43 97.0506 452.718 99.7228C459.105 101.004 419.266 82.4065 432.23 76.2299C441.459 73.3138 445.042 76.2437 439.376 70.3979C435.532 63.6658 427.723 55.6912 424.042 48.7089C399.769 35.167 454.055 48.4544 435.422 34.4235C427.26 34.6776 442.04 19.9017 421.497 23.2338C406.928 32.7077 380.302 7.38212 408.445 21.6967C430.262 23.4727 385.786 3.18788 374.971 1.88704C340.203 -2.29267 312.636 1.16567 278.72 5.5212C260.1 7.91249 263.241 21.3121 277.157 18.4973C273.395 29.2561 254.501 26.3414 274.723 27.2638C262.025 32.6361 300.828 34.2135 283.129 45.3725C293.574 50.2971 310.073 58.3839 298.841 60.4595C321.273 59.9247 282.811 78.5735 281.75 87.958C266.536 94.0079 253.49 110.281 247.316 104.117C258.656 112.837 236.335 114.411 230.2 110.99C214.999 105.516 193.333 120.614 178.384 130.958C151.791 149.389 169.85 101.564 189.564 92.1546L189.569 92.146ZM505.098 622.676C513.558 605.196 529.276 593.413 545.594 580.58C566.459 572.911 531.664 610.114 520.008 614.662C515.361 617.864 510.755 621.4 505.098 622.676ZM509.079 597.791C506.824 622.738 470.96 623.403 459.483 641.76C447.873 647.568 423.047 663.97 452.359 653.306C527.352 626.023 567.189 586.832 591.37 562.023C646.652 505.314 681.431 419.46 679.431 325.998C676.802 319.161 664.048 259.12 662.27 287.611C662.063 317.727 661.366 347.965 663.877 377.922C655.274 417.981 642.993 331.113 640.628 353.165C631.813 351.035 630.816 346.375 619.861 340.972C611.857 353.126 594.005 368.345 582.813 359.191C575.098 382.779 555.324 362.566 547.894 356.908C529.11 372.833 574.562 390.788 579.576 378.42C585.627 360.015 581.89 363.953 593.373 370.843C607.965 373.936 595.8 401.816 591.376 414.493C579.452 430.472 573.47 453.124 553.672 466.16C542.409 480.891 527.842 488.879 527.987 462.418C514.597 443.039 497.298 438.686 486.454 416.733C485.286 400.36 471.495 395.913 467.643 405.885C458.31 399.755 481.65 432.408 487.232 436.888C495.818 461.319 511.529 478.22 535.949 485.312C537.946 518.12 589.076 434.81 576.015 477.864C566.714 509.958 541.561 532.853 524.468 560.494C514.497 571.902 500.799 585.401 509.073 597.788L509.079 597.791ZM459.31 589.829C470.08 590.205 484.287 571.725 470.713 573.295C461.486 573.508 461.768 583.44 459.31 589.829ZM336.879 74.2222C345.682 61.3141 354.034 76.4323 345.595 77.182C356.09 89.1681 336.619 73.165 339.234 92.2533C336.167 91.1173 322.644 62.1581 336.879 74.2222ZM357.782 147.88C359.882 160.991 333.89 169.708 355.791 179.733C353.509 193.171 342.949 216.357 331.528 216.775C316.206 227.783 350.277 226.466 355.745 217.995C368.344 223.256 365.466 212.382 367.975 205.564C362.515 190.246 386.393 206.984 373.058 188.872C359.475 200.6 381.712 175.91 390.423 179.732C386.441 169.403 357.914 196.165 362.758 174.755C344.235 162.509 392.165 140.029 357.782 147.88ZM420.597 274.732C421.78 282.043 418.573 294.118 412.84 303.221C426.693 319.94 454.088 290.489 475.286 303.242C501.235 286.969 444.66 263.109 439.838 289.007C429.033 280.719 446.087 268.97 428.556 271.282C424.237 270.538 424.188 263.459 420.597 274.732ZM525.005 305.15C542.327 314.596 560.974 296.691 539.918 285.618C530.769 273.842 528.058 264.119 515.584 258.925C509.276 256.342 529.267 228.386 507.793 241.23C492.85 248.057 500.186 268.332 508.327 274.639C529.506 287.768 527.339 280.291 525.005 305.15ZM311.998 340.983C297.789 350.003 298.786 327.969 304.59 321.522C303.53 314.258 315.941 295.388 311.501 316.936C308.264 323.561 316.866 333.022 311.998 340.983ZM224.405 348.947C234.372 372.977 280.597 345.664 304.95 358.654C316.673 354.281 324.272 356.741 320.152 369.331C303.273 375.436 325.313 384.329 330.911 382.788C347.236 385.005 351.269 399.786 369.065 401.63C382.998 405.785 372.833 370.007 397.383 381.85C402.58 390.077 414.175 385.92 423.861 388.174C440.216 393.711 448.793 373.994 464.361 376.734C469.713 364.485 468.17 327.584 466.191 333.116C456.725 341.711 441.2 342.41 428.484 348.587C421.999 343.687 415.857 354.667 413.751 337.349C409.313 327.803 408.448 310.761 390.634 327.048C385.412 328.176 407.096 340.026 402.609 346.204C391.676 339.056 392.754 344.797 390.736 354.92C380.623 348.814 372.678 322.152 358.39 310.193C343.018 302.907 341.783 288.149 330.969 285.46C322.578 307.596 367.735 322.613 360.554 329.034C342.554 318.015 368.981 349.731 345.172 348.816C345.33 365.721 312.766 338.034 341.552 345.96C362.025 333.878 325.12 319.578 318.424 307.906C312.009 281.917 295.042 320.851 281.997 299.231C280.634 310.71 253.615 319.513 256.259 337.003C246.618 346.053 238.653 349.201 224.406 348.948L224.405 348.947ZM228.387 137.921C229.169 138.134 240.319 119.017 238.838 130.455C265.411 133.844 237.414 159.105 223.411 141.903L228.387 137.921Z" fill="url(#paint0_linear_382_82)"/>
<g filter="url(#filter0_ddd_382_82)">
<path d="M222.395 421.003L221.548 420.22L220.701 419.436L219.854 418.652L219.007 417.867L218.413 417.34L218.293 417.233L217.591 416.61L216.769 415.879L215.947 415.148L215.125 414.417L214.155 413.553L213.185 412.688L212.215 411.822L211.245 410.955L210.275 410.088L209.306 409.22L208.336 408.352L207.367 407.483L206.398 406.613L205.429 405.742L204.459 404.871L203.49 403.999L203.576 403.423L203.662 402.848L203.748 402.272L203.835 401.695L203.89 401.327L203.945 400.959L204 400.591L204.055 400.223L204.11 399.854L204.165 399.486L204.22 399.117L204.276 398.747L204.331 398.378L204.386 398.009L204.441 397.639L204.497 397.269L204.552 396.899L204.608 396.528L204.663 396.158L204.719 395.787L204.761 395.504L204.805 395.34L204.884 395.233L204.999 395.16L205.751 394.885L206.025 394.725L206.293 394.624L206.371 394.564L206.608 394.26L206.699 394.205L206.903 394.148L207.001 394.107L207.413 393.815L207.822 393.617L208.474 393.437L208.675 393.336L209.242 392.935L209.876 392.63L210.255 392.367L210.536 392.27L210.629 392.216L211.012 391.926L211.21 391.872L211.462 391.921L211.696 391.998L211.817 392.021L211.939 392.025L212.058 392L212.671 392.128L213.243 391.679L213.889 391.508L214.314 391.527L214.915 391.662L215.805 392.196L216.326 391.828L217.099 391.855L217.929 391.756L218.702 391.782L219.5 391.901L220.183 392.004L220.848 391.969L221.545 391.984L221.65 392.58L222.08 392.823L222.638 392.728L223.318 392.071L223.93 391.358L224.421 390.67L225.038 390.18L225.667 389.871L226.353 389.435L226.861 389.152L227.477 388.93L228.327 388.697L229.179 388.195L229.905 387.493L230.483 387.264L231.155 387.184L231.997 387.265L232.942 387.181L234.046 386.804L234.068 386.401L234.089 385.997L234.395 385.772L234.772 385.33L234.549 384.811L234.56 384.687L234.553 384.57L234.518 384.445L234.463 384.378L234.281 384.252L234.199 384.144L234.086 383.883L234.02 383.788L233.929 383.749L233.842 383.78L233.661 383.907L233.557 383.936L233.468 383.917L233.412 383.85L233.409 383.737L233.464 383.618L233.608 383.44L233.641 383.296L233.679 382.811L233.718 382.698L233.8 382.622L234.132 382.447L234.538 382.481L234.86 380.844L235.259 380.705L235.483 380.793L235.688 380.805L237.319 380.756L238.55 380.575L239.52 380.583L239.385 379.923L239.16 378.866L239.5 378.736L240.521 378.801L241.537 378.674L242.279 378.821L242.621 378.888L243.009 378.965L243.431 379.048L243.88 379.138L244.347 379.23L244.821 379.324L245.293 379.418L245.756 379.509L246.198 379.597L246.611 379.679L246.986 379.753L247.313 379.818L247.584 379.872L247.789 379.912L247.919 379.938L247.964 379.947L248.371 380.028L248.592 380.008L248.733 379.796L248.726 379.659L248.65 379.566L248.541 379.515L248.437 379.5L248.223 379.551L248.136 379.536L248.127 379.428L248.154 379.391L248.255 379.333L248.293 379.304L248.338 379.24L248.354 379.189L248.36 379.134L248.383 379.059L248.558 378.485L248.665 378.264L248.736 378.158L248.842 378.055L248.937 378.022L249.167 378.023L249.381 377.969L249.582 377.858L249.95 377.551L249.888 377.393L248.545 375.992L248.219 375.812L248.063 375.633L247.512 374.286L247.768 374.153L247.815 374.115L247.855 374.066L247.887 374.008L247.909 373.944L247.948 373.805L247.972 373.654L247.957 373.514L247.879 373.411L247.738 373.272L247.616 373.12L247.528 372.943L247.485 372.728L247.415 372.528L247.18 372.218L247.162 371.997L247.259 371.358L247.34 371.201L247.439 371.048L247.595 370.7L247.695 370.591L247.79 370.423L247.797 370.205L247.64 369.579L247.593 369.493L247.509 369.408L247.33 369.312L247.256 369.242L247.238 369.134L247.278 369.037L247.341 368.979L247.412 368.933L247.478 368.871L247.533 368.781L247.548 368.71L247.519 368.51L247.519 368.181L247.583 367.877L247.994 366.859L248.027 366.73L248.026 366.644L248.026 366.55L247.819 365.281L247.726 364.968L247.555 364.689L248.24 364.069L248.184 364.025L247.995 363.935L247.442 363.161L247.503 363.056L247.854 362.655L248.031 362.377L248.11 362.333L248.137 362.288L248.053 362.171L247.537 361.722L247.379 361.52L247.117 361.296L247.056 361.195L247.043 361.1L247.05 361.008L247.04 360.927L246.979 360.863L246.738 360.803L246.573 360.657L246.428 360.471L246.247 360.294L246.091 360.205L246.014 360.059L245.989 359.876L246.02 359.613L246.149 359.586L246.169 359.598L246.188 359.603L246.204 359.616L246.216 359.647L246.388 359.589L246.571 359.659L246.754 359.773L246.931 359.846L247.29 359.849L247.408 359.91L247.452 359.924L247.49 359.916L247.596 359.853L248.127 359.782L248.284 359.699L248.331 359.695L248.494 359.725L248.567 359.72L248.661 359.672L248.871 359.487L249.236 359.421L249.303 359.389L249.365 359.278L250.095 358.821L250.206 358.8L250.731 358.821L250.881 358.8L250.913 358.788L250.945 358.766L251.114 358.607L251.221 358.593L251.335 358.536L251.437 358.46L251.508 358.387L251.574 358.26L251.686 357.954L251.76 357.842L251.839 357.748L252.104 357.276L252.153 357.213L252.221 357.192L252.35 357.204L252.383 357.176L252.553 356.997L252.618 356.963L252.76 356.888L252.95 356.755L253.029 356.661L253.076 356.626L253.28 356.609L253.394 356.556L253.493 356.493L253.584 356.451L253.718 356.431L253.785 356.447L253.807 356.508L253.831 356.539L253.9 356.521L254.125 356.429L254.292 356.22L254.424 356.203L254.465 356.235L254.498 356.288L254.54 356.34L254.608 356.371L254.662 356.387L254.763 356.436L254.823 356.454L254.885 356.484L254.907 356.537L254.923 356.6L254.963 356.658L255.015 356.679L255.224 356.697L255.325 356.687L255.444 356.65L255.547 356.586L255.641 356.406L255.709 356.405L255.78 356.44L255.835 356.456L255.897 356.431L255.942 356.391L256.274 355.895L256.29 355.823L256.28 355.803L256.276 355.76L256.28 355.715L256.292 355.687L256.324 355.683L256.353 355.705L256.377 355.733L256.396 355.746L256.452 355.75L256.563 355.777L256.619 355.779L256.864 355.702L257.02 355.679L257.081 355.731L257.095 355.811L257.148 355.856L257.208 355.885L257.244 355.915L257.252 355.988L257.205 356.074L257.209 356.148L257.283 356.259L257.415 356.352L257.79 356.493L258.009 356.627L258.12 356.667L258.178 356.663L258.35 356.651L258.611 356.56L258.861 356.428L259.058 356.285L259.309 355.921L259.39 355.76L259.637 355.363L259.706 355.214L259.725 355.14L259.75 355.101L259.8 355.075L259.858 355.054L259.909 355.027L260.213 354.787L260.317 354.734L260.683 354.665L260.749 354.632L260.781 354.591L260.912 354.532L260.963 354.497L260.99 354.44L261.04 354.285L261.074 354.232L261.179 354.193L261.316 354.185L261.556 354.21L261.684 354.204L261.785 354.157L261.878 354.093L262.318 353.88L262.533 353.849L262.639 353.78L262.737 353.7L262.838 353.649L262.946 353.639L263.371 353.667L263.441 353.672L263.531 353.643L263.733 353.543L264.086 353.5L264.182 353.447L264.247 353.393L264.385 353.326L264.456 353.274L264.487 353.225L264.51 353.169L264.542 353.112L264.601 353.06L264.699 353.035L264.95 353.012L265.175 352.907L265.568 352.964L265.693 352.94L265.927 352.854L266.061 352.85L266.293 352.89L266.403 352.894L266.533 352.873L266.875 352.76L266.992 352.757L267.088 352.791L267.312 352.914L267.434 352.961L267.563 352.973L267.796 352.941L268.802 353.033L268.887 353.04L268.945 353.035L269.082 352.992L269.144 352.984L269.191 352.999L269.302 353.05L269.364 353.06L269.674 353.023L269.982 353.05L270.227 353.142L270.294 353.157L270.776 353.17L272.195 352.964L272.309 352.934L272.43 352.945L272.543 352.993L272.634 353.073L272.66 353.139L272.661 353.202L272.675 353.253L272.737 353.282L272.795 353.298L272.901 353.346L272.953 353.361L273.741 353.432L273.925 353.399L274.5 353.069L274.884 352.934L275.042 352.834L275.207 352.654L275.255 352.566L275.416 352.446L275.762 352.264L276.009 352.25L276.05 352.263L276.206 352.308L276.372 352.449L276.49 352.631L276.622 352.786L276.82 352.886L277.001 352.906L277.034 352.91L277.218 352.836L277.29 352.75L277.332 352.654L277.365 352.477L277.423 352.481L277.752 352.699L277.948 352.784L278.595 352.92L278.705 352.921L278.924 352.889L279.039 352.892L279.1 352.882L279.147 352.846L279.188 352.806L279.226 352.782L279.281 352.781L279.396 352.811L279.452 352.816L279.672 352.742L280.048 352.457L280.242 352.361L280.73 352.283L280.986 352.291L281.191 352.361L281.366 352.515L281.45 352.542L281.51 352.543L281.632 352.529L281.823 352.552L281.866 352.564L282.111 352.634L282.207 352.707L282.452 352.618L282.525 352.612L282.589 352.636L282.718 352.717L282.789 352.742L282.859 352.732L283.017 352.66L283.09 352.645L283.179 352.667L283.318 352.757L283.393 352.785L284.061 352.791L284.126 352.811L284.204 352.851L284.276 352.9L284.322 352.948L284.383 352.994L284.558 353.025L284.63 353.069L284.809 353.019L284.864 353.024L285.035 353.042L285.438 353.139L285.831 353.15L285.927 353.182L286.755 353.693L286.84 353.803L286.863 353.853L286.926 353.876L287.002 353.887L287.054 353.902L287.087 353.942L287.123 354.033L287.14 354.061L287.225 354.119L287.327 354.168L287.436 354.203L287.538 354.215L287.379 354.529L287.392 354.641L287.528 354.782L288.117 355.206L288.291 355.279L288.482 355.315L288.859 355.317L289.175 355.274L289.208 355.27L289.376 355.295L289.404 355.282L289.486 355.208L289.528 355.18L289.758 355.128L289.879 355.062L289.99 354.827L290.079 354.734L290.188 354.663L290.293 354.628L290.543 354.592L290.652 354.554L290.873 354.408L291.007 354.38L291.144 354.394L291.507 354.529L291.731 354.554L292.677 354.483L293.595 354.282L293.825 354.185L293.965 354.035L293.995 353.894L293.991 353.778L294.006 353.671L294.092 353.553L294.14 353.516L294.384 353.382L294.474 353.303L294.535 353.261L294.728 353.191L294.978 353.163L295.232 353.194L295.44 353.301L295.612 353.484L295.641 353.5L295.633 353.57L295.639 353.622L295.662 353.657L295.71 353.675L295.765 353.734L295.783 354.001L295.854 354.128L295.938 354.107L296.028 354.159L296.125 354.232L296.23 354.279L297.043 354.448L297.108 354.482L297.197 354.556L297.277 354.646L297.323 354.727L297.304 354.838L297.457 354.924L297.666 354.976L297.814 354.99L298.32 354.912L298.484 354.849L298.564 354.9L298.696 354.955L298.824 354.978L298.888 354.936L298.947 354.877L299.206 354.715L299.29 354.685L299.327 354.658L299.382 354.591L299.434 354.513L299.46 354.451L299.462 354.373L299.442 354.316L299.263 354.054L299.123 353.895L299.129 353.853L299.191 353.853L299.301 353.835L299.359 353.84L299.411 353.866L299.503 353.94L299.551 353.96L299.562 353.967L299.581 353.979L299.601 354.007L299.621 354.022L299.659 354.002L299.706 353.958L299.732 353.947L299.76 353.948L299.809 353.975L299.901 354.051L299.954 354.072L300.002 354.064L300.153 354.007L300.226 354.017L300.24 354.026L300.239 354.053L300.269 354.119L300.281 354.199L300.309 354.248L300.38 354.278L300.489 354.296L300.535 354.317L300.579 354.356L300.676 354.314L300.778 354.295L300.95 354.472L301.086 354.669L301.245 354.833L301.48 354.918L301.536 354.912L301.587 354.894L301.642 354.887L301.709 354.909L301.766 354.948L301.816 354.993L301.858 355.044L301.893 355.1L302.158 355.114L302.216 355.101L302.332 355.004L302.391 354.964L302.329 355.096L302.239 355.236L302.195 355.366L302.274 355.469L302.148 355.648L302.15 355.65L302.324 355.826L302.618 355.965L302.841 356.032L303.638 355.957L303.773 355.909L303.897 355.827L304.715 355.559L304.803 355.637L304.884 355.753L304.981 355.822L305.228 355.846L305.35 355.877L305.44 355.942L305.526 355.922L305.59 355.964L305.651 356.031L305.723 356.084L305.908 356.13L306.097 356.14L306.7 355.986L306.703 355.985L306.694 356.168L306.677 356.249L306.685 356.321L306.828 356.636L306.811 356.718L306.704 356.773L306.304 356.869L306.112 356.88L305.91 356.835L305.697 356.829L305.516 356.888L305.465 356.99L305.64 357.119L305.729 357.274L305.647 357.505L305.487 357.724L305.345 357.841L304.627 358.144L304.256 358.224L304.085 358.301L303.933 358.438L303.888 358.665L303.887 358.669L304.096 358.794L304.558 358.926L304.655 358.997L304.754 359.041L304.83 359.105L304.857 359.236L304.848 359.367L304.798 359.644L304.769 359.735L304.758 359.77L304.393 360.454L304.326 360.729L304.331 360.866L304.353 360.997L304.349 361.121L304.281 361.241L304.203 361.343L304.014 361.821L303.941 362.188L303.908 362.265L303.73 362.667L303.618 363.196L303.599 363.484L303.629 363.728L303.829 364.206L303.889 364.438L303.878 364.647L303.848 365.213L303.817 365.41L303.551 365.854L303.457 366.077L303.41 366.319L303.404 366.597L303.493 366.853L303.684 366.985L303.9 367.09L304.065 367.264L303.991 367.386L303.587 367.844L303.288 368.09L303.181 368.314L303.012 368.789L302.83 369.123L302.736 369.371L302.709 369.619L302.711 370.302L302.682 370.39L302.63 370.443L302.621 370.452L302.419 370.611L302.34 370.701L302.31 370.801L302.417 371.044L302.364 371.111L302.15 371.206L302.108 371.254L302.052 371.364L302.022 371.406L301.972 371.443L301.832 371.502L301.579 371.669L301.527 371.703L300.975 371.863L300.724 371.993L300.222 372.13L299.986 372.253L299.845 372.468L299.524 373.216L299.459 373.316L299.379 373.388L299.268 373.428L298.914 373.432L298.687 373.507L298.515 373.64L298.355 373.797L298.102 373.992L297.965 374.098L297.864 374.264L297.775 374.745L297.564 375.385L297.553 375.644L297.573 376.015L297.594 376.133L297.705 376.461L297.71 376.808L297.731 376.982L297.986 377.639L298.293 378.43L298.337 378.698L298.333 378.725L298.211 379.589L298.249 379.905L298.366 380.08L298.557 380.171L298.814 380.234L299.002 380.332L299.538 380.858L299.636 380.929L299.742 380.98L299.855 381.005L299.972 380.997L300.082 381.089L300.475 381.973L300.897 382.919L300.94 383.137L300.878 384.056L300.83 384.73L300.862 384.952L300.868 384.961L300.992 385.147L301.595 385.673L302.368 386.434L303.382 387.429L304.197 388.23L304.259 388.332L304.302 388.462L304.333 388.936L304.337 389.006L304.387 389.734L304.435 390.461L304.484 391.186L304.533 391.912L304.582 392.636L304.631 393.36L304.68 394.082L304.73 394.804L304.78 395.526L304.829 396.246L304.879 396.965L304.929 397.684L304.98 398.402L305.03 399.119L305.08 399.835L305.13 400.551L303.758 401.064L303.854 401.289L304.12 401.724L304.353 402.106L304.892 403.253L305.352 404.562L305.558 406.124L305.765 407.683L305.743 408.651L305.583 409.831L305.298 410.848L304.7 412.977L304.716 413.346L305.194 415.575L305.149 415.815L305.125 415.866L304.573 417.035L304.463 417.144L304.298 417.204L304.15 417.282L304.148 417.413L304.207 417.562L304.241 417.697L304.181 417.808L303.908 418.032L303.811 418.15L303.685 418.5L303.559 418.728L303.519 418.823L303.501 418.924L303.718 420.622L303.728 421.276L303.762 421.403L303.813 421.467L304.036 421.64L304.111 421.726L304.12 421.817L303.886 422.445L303.839 422.654L303.876 422.833L303.869 422.964L303.525 423.71L303.405 423.817L301.348 424.45L301.323 424.57L301.288 424.671L301.227 424.751L301.015 424.9L300.88 425.125L300.789 425.211L300.612 425.477L300.689 425.833L301.29 427.017L301.945 428.306L302.473 429.34L303.129 430.627L303.28 431.043L303.296 431.435L303.2 432.229L303.098 433.08L302.984 433.913L303.029 434.083L303.766 434.681L303.844 434.859L303.856 435.428L303.893 435.647L303.975 435.772L304.603 436.456L304.699 436.511L304.917 436.522L305.586 436.381L306.221 436.247L306.341 436.251L306.455 436.292L307.439 436.792L308.671 437.417L310.31 438.247L310.524 438.356L310.687 438.48L310.8 438.683L311.061 439.509L311.333 440.37L311.339 440.388L311.762 441.724L312.027 442.556L312.316 443.464L311.911 443.647L311.505 443.829L311.1 444.012L310.695 444.194L310.289 444.376L309.884 444.558L309.479 444.74L309.074 444.921L308.668 445.104L308.263 445.285L307.858 445.467L307.452 445.649L307.048 445.83L306.642 446.011L306.237 446.193L305.831 446.374L305.426 446.555L305.021 446.737L304.615 446.918L304.21 447.099L303.806 447.279L303.4 447.46L302.996 447.641L302.59 447.822L302.185 448.003L301.78 448.183L301.375 448.364L300.97 448.544L300.565 448.725L300.16 448.905L299.755 449.085L299.35 449.266L298.946 449.446L298.54 449.626L298.136 449.806L297.73 449.986L297.325 450.166L296.921 450.346L296.516 450.525L296.111 450.705L295.706 450.884L295.301 451.064L294.896 451.244L294.492 451.423L294.087 451.602L293.681 451.782L293.277 451.961L292.872 452.14L292.467 452.32L292.062 452.499L291.657 452.677L291.252 452.857L290.847 453.035L290.443 453.214L290.038 453.393L289.633 453.571L289.229 453.75L288.824 453.928L288.418 454.107L288.014 454.285L287.609 454.464L287.204 454.642L286.8 454.82L286.395 454.998L285.616 455.341L285.007 455.73L284.569 456.011L284.13 456.291L283.692 456.571L283.253 456.851L282.777 457.155L282.544 457.309L282.187 457.55L281.798 457.814L281.408 458.077L281.019 458.339L280.629 458.602L280.24 458.865L279.85 459.127L279.46 459.39L279.072 459.653L278.682 459.915L278.292 460.177L277.903 460.439L277.513 460.701L277.124 460.963L276.734 461.224L276.344 461.486L275.955 461.748L275.468 462.074L275.208 462.204L274.95 462.261L274.228 462.298L273.67 462.327L272.444 462.391L271.218 462.454L270.66 462.483L269.603 462.538L268.547 462.592L267.491 462.647L266.435 462.702L265.478 462.746L264.522 462.79L263.983 462.814L263.565 462.833L262.609 462.877L262.023 462.904L262.022 462.904L261.566 462.946L261.425 462.932L261.347 462.908L261.296 462.877L261.181 462.777L260.908 462.411L260.674 462.265L260.568 462.181L260.473 462.082L260.39 461.971L260.319 461.827L260.326 461.722L260.391 461.627L260.49 461.512L260.549 461.406L260.584 461.358L260.664 461.321L260.8 461.216L260.839 461.121L260.9 460.901L260.965 460.803L261.079 460.732L261.204 460.686L261.315 460.622L261.388 460.499L261.393 460.37L261.348 460.268L261.292 460.172L261.26 460.06L261.27 460.005L261.316 459.895L261.325 459.859L261.31 459.805L261.285 459.778L261.259 459.756L261.235 459.717L261.197 459.496L261.224 459.272L261.499 458.123L261.489 458.041L261.424 457.956L261.345 457.902L261.158 457.813L261.074 457.758L260.797 457.458L260.155 457.05L258.712 456.512L258.416 456.455L257.935 456.283L257.876 456.27L257.774 456.23L257.594 456.093L257.495 456.035L257.368 455.985L257.289 455.942L257.235 455.87L257.076 455.431L256.94 455.159L256.773 454.91L256.479 454.593L256.393 454.522L256.297 454.48L256.18 454.484L256.041 454.547L255.789 454.726L255.636 454.768L255.557 454.745L255.233 454.573L255.184 454.53L255.148 454.486L255.106 454.451L255.042 454.432L254.963 454.443L254.858 454.516L254.794 454.536L254.675 454.514L254.645 454.436L254.642 454.324L254.607 454.197L254.532 454.119L254.446 454.1L254.346 454.099L254.229 454.074L254.123 454.002L253.557 453.365L253.516 453.272L253.585 452.839L253.583 452.627L253.498 452.444L253.191 452.124L252.994 451.979L252.798 451.916L252.711 451.838L252.617 451.793L252.403 451.724L252.179 451.615L252.097 451.535L252.029 451.413L251.946 451.194L251.88 451.12L251.758 451.067L251.643 451.052L251.42 451.067L251.304 451.052L251.183 451.016L251.112 450.974L251.083 450.894L251.09 450.748L251.111 450.635L251.31 450.129L251.474 449.503L251.481 449.373L251.436 448.984L251.384 448.856L250.814 448.315L250.392 447.914L249.971 447.513L249.55 447.112L249.128 446.712L248.707 446.31L248.286 445.909L247.864 445.507L247.443 445.105L247.022 444.704L246.601 444.302L246.18 443.9L245.827 443.564L245.758 443.498L245.337 443.096L244.916 442.693L244.494 442.291L244.073 441.888L243.652 441.486L243.231 441.083L242.81 440.679L242.389 440.276L241.968 439.873L241.547 439.47L241.126 439.067L240.705 438.663L240.284 438.259L239.863 437.855L239.442 437.451L239.022 437.044L238.601 436.64L238.181 436.235L237.76 435.831L237.339 435.426L236.918 435.021L236.498 434.616L236.077 434.211L235.656 433.806L235.235 433.4L234.815 432.995L234.394 432.589L233.973 432.183L233.552 431.777L233.132 431.371L232.712 430.964L232.291 430.558L231.87 430.151L231.45 429.745L231.029 429.338L230.609 428.93L230.222 428.556L229.836 428.181L229.449 427.806L229.062 427.432L228.675 427.057L228.288 426.682L227.902 426.306L227.516 425.931L227.129 425.555L226.742 425.179L226.356 424.803L225.969 424.428L225.583 424.052L225.197 423.676L224.81 423.299L224.423 422.923L223.885 422.397L223.513 422.05L223.141 421.702L222.769 421.354L222.397 421.006L222.397 421.006L222.396 421.005L222.395 421.003Z" fill="#ECECEC"/>
</g>
<defs>
<filter id="filter0_ddd_382_82" x="163.09" y="333.65" width="191.826" height="185.496" filterUnits="userSpaceOnUse" color-interpolation-filters="sRGB">
<feFlood flood-opacity="0" result="BackgroundImageFix"/>
<feColorMatrix in="SourceAlpha" type="matrix" values="0 0 0 0 0 0 0 0 0 0 0 0 0 0 0 0 0 0 127 0" result="hardAlpha"/>
<feOffset dx="-21" dy="2"/>
<feGaussianBlur stdDeviation="9.7"/>
<feColorMatrix type="matrix" values="0 0 0 0 0.266667 0 0 0 0 0.576471 0 0 0 0 0.768627 0 0 0 1 0"/>
<feBlend mode="normal" in2="BackgroundImageFix" result="effect1_dropShadow_382_82"/>
<feColorMatrix in="SourceAlpha" type="matrix" values="0 0 0 0 0 0 0 0 0 0 0 0 0 0 0 0 0 0 127 0" result="hardAlpha"/>
<feOffset dx="20" dy="4"/>
<feGaussianBlur stdDeviation="11.3"/>
<feComposite in2="hardAlpha" operator="out"/>
<feColorMatrix type="matrix" values="0 0 0 0 0.396078 0 0 0 0 0.721569 0 0 0 0 0.827451 0 0 0 1 0"/>
<feBlend mode="normal" in2="effect1_dropShadow_382_82" result="effect2_dropShadow_382_82"/>
<feColorMatrix in="SourceAlpha" type="matrix" values="0 0 0 0 0 0 0 0 0 0 0 0 0 0 0 0 0 0 127 0" result="hardAlpha"/>
<feOffset dx="1" dy="28"/>
<feGaussianBlur stdDeviation="14.1"/>
<feComposite in2="hardAlpha" operator="out"/>
<feColorMatrix type="matrix" values="0 0 0 0 0.266667 0 0 0 0 0.576471 0 0 0 0 0.768627 0 0 0 1 0"/>
<feBlend mode="normal" in2="effect2_dropShadow_382_82" result="effect3_dropShadow_382_82"/>
<feBlend mode="normal" in="SourceGraphic" in2="effect3_dropShadow_382_82" result="shape"/>
</filter>
<linearGradient id="paint0_linear_382_82" x1="340.344" y1="0" x2="340.344" y2="671.71" gradientUnits="userSpaceOnUse">
<stop stop-color="#2C4588"/>
<stop offset="1" stop-color="#4493C4"/>
</linearGradient>
</defs>
</svg>
